<?xml version="1.0" standalone="no"?>
<!DOCTYPE svg PUBLIC "-//W3C//DTD SVG 20010904//EN"
 "http://www.w3.org/TR/2001/REC-SVG-20010904/DTD/svg10.dtd">
<svg version="1.0" xmlns="http://www.w3.org/2000/svg"
 width="700.000000pt" height="700.000000pt" viewBox="0 0 700.000000 700.000000"
 preserveAspectRatio="xMidYMid meet">
<metadata>
Created by potrace 1.14, written by Peter Selinger 2001-2017
</metadata>
<g transform="translate(0.000000,700.000000) scale(0.100000,-0.100000)"
fill="#000000" stroke="none">
<path d="M3330 6629 c-14 -5 -34 -23 -44 -40 -17 -29 -18 -47 -1 -149 16 -107
20 -136 30 -230 3 -30 8 -64 10 -75 7 -33 18 -253 19 -355 0 -114 -10 -244
-25 -308 -6 -26 -13 -58 -15 -72 -10 -48 -56 -138 -87 -168 -46 -43 -90 -53
-157 -34 -116 33 -146 17 -198 -108 -147 -350 -270 -775 -297 -1025 -4 -33 -8
-71 -10 -84 -9 -51 -17 -249 -19 -460 -3 -203 -5 -221 -24 -253 -40 -64 -126
-79 -182 -32 -63 53 -120 213 -154 429 -15 93 -19 131 -30 257 -5 55 -19 83
-47 98 -72 39 -108 16 -195 -123 -195 -312 -319 -640 -359 -944 -3 -24 -8 -62
-11 -85 -8 -55 -8 -325 0 -375 3 -21 8 -58 11 -83 41 -333 192 -694 415 -990
72 -95 94 -159 88 -251 -3 -38 -12 -79 -21 -92 -15 -24 -20 -45 -18 -83 2 -36
173 -192 305 -279 213 -139 504 -254 736 -290 25 -4 54 -9 65 -11 93 -18 204
-27 350 -26 72 0 155 3 185 7 30 3 73 8 95 11 67 8 196 33 275 54 41 12 82 23
90 25 226 60 546 231 728 390 106 93 104 88 108 233 3 118 19 205 42 222 4 3
25 30 47 60 251 341 405 740 442 1143 14 151 7 461 -12 587 -2 14 -7 45 -10
70 -3 25 -8 53 -11 62 -3 9 -7 27 -9 40 -3 13 -9 44 -15 69 -6 26 -13 53 -14
60 -15 74 -97 319 -130 390 -29 61 -54 80 -106 81 -26 1 -40 -6 -62 -31 -15
-17 -28 -43 -28 -56 0 -99 -99 -166 -169 -115 -49 34 -54 53 -57 209 -2 126
-8 236 -19 346 -5 54 -18 135 -41 260 -40 221 -149 536 -272 785 -114 233
-323 557 -458 710 -12 14 -54 62 -94 108 -200 230 -519 516 -588 527 -15 2
-38 0 -52 -6z"/>
<path d="M2499 5532 c-29 -26 -31 -33 -34 -106 -5 -106 -40 -178 -132 -271
-38 -38 -81 -86 -95 -105 -51 -67 -98 -178 -115 -269 -13 -75 69 -133 141
-100 25 12 56 63 56 93 0 24 46 122 74 158 13 18 53 62 88 98 68 70 128 160
148 225 7 22 16 47 20 55 3 8 7 51 7 95 1 92 -14 129 -60 145 -46 16 -64 12
-98 -18z"/>
</g>
</svg>
